<svg xmlns="http://www.w3.org/2000/svg" viewBox="0 0 156.56 39.37"><defs><style>.cls-1{fill:#0b73b6;}.cls-2{fill:#36434d;}</style></defs><title>logo</title><g id="Layer_2" data-name="Layer 2"><g id="Layer_1-2" data-name="Layer 1"><path class="cls-1" d="M16.39.29a19.74,19.74,0,0,0-9,34.84c5-6.25,10.29-19,10.42-26.1,1.83,8.73.28,20.92-3.72,29.63a19.71,19.71,0,0,0,3.51.71C24.49,27,22.77,9.76,16.39.29Z"/><path class="cls-1" d="M35.72,31.36A19.74,19.74,0,0,0,19.75,0h-.37C26.28,5.18,34.33,18.57,35.72,31.36Z"/><path class="cls-2" d="M62.31,1.37h4.1L77.51,26.75H72.83l-2.56-6.08H58.35l-2.59,6.08H51.23ZM68.65,16.7,64.29,6.62,60,16.7Z"/><path class="cls-2" d="M73,7.74h4.68l5.11,14L88,7.74h4.57L84.77,26.89H80.84Z"/><path class="cls-2" d="M105.05,26.75V24.41a8.15,8.15,0,0,1-2.48,1.94,7.83,7.83,0,0,1-3.67.79,8.79,8.79,0,0,1-2.57-.38,6.35,6.35,0,0,1-2.16-1.12,5.42,5.42,0,0,1-2-4.37V21.2a6.17,6.17,0,0,1,.58-2.75,5.37,5.37,0,0,1,1.6-1.94,7,7,0,0,1,2.45-1.15A11.94,11.94,0,0,1,99.83,15a17,17,0,0,1,2.93.22,17.81,17.81,0,0,1,2.32.58v-.36a3.78,3.78,0,0,0-1.21-3,5.16,5.16,0,0,0-3.47-1,11.61,11.61,0,0,0-2.88.32,18.87,18.87,0,0,0-2.56.86L93.78,9A20,20,0,0,1,97,7.88a16,16,0,0,1,4-.43q4.25,0,6.3,2.11a8.13,8.13,0,0,1,2.05,5.92V26.75Zm.11-8a11.16,11.16,0,0,0-2-.54A12.77,12.77,0,0,0,100.8,18a5.6,5.6,0,0,0-3.2.79A2.49,2.49,0,0,0,96.45,21v.07a2.37,2.37,0,0,0,1.06,2.09,4.54,4.54,0,0,0,2.61.72,6.63,6.63,0,0,0,2-.29,5.15,5.15,0,0,0,1.6-.81,3.69,3.69,0,0,0,1.06-1.26,3.54,3.54,0,0,0,.38-1.64Z"/><path class="cls-2" d="M112.49.47h4.36V26.75h-4.36Z"/><path class="cls-2" d="M124.34,32.62a8.78,8.78,0,0,1-2.43-.31,10.54,10.54,0,0,1-2.07-.85l1.48-3.24a7.32,7.32,0,0,0,1.24.52,4.36,4.36,0,0,0,1.31.2,2.47,2.47,0,0,0,1.55-.47,4.3,4.3,0,0,0,1.15-1.73l-7.92-19h4.64l5.4,14.11,4.93-14.11h4.54l-7.56,19.55a16.24,16.24,0,0,1-1.19,2.48,6.51,6.51,0,0,1-1.37,1.64,4.92,4.92,0,0,1-1.66.92A6.74,6.74,0,0,1,124.34,32.62Z"/><path class="cls-2" d="M139.5,7.74h4.36v3a9.32,9.32,0,0,1,2.34-2.36,6.11,6.11,0,0,1,3.6-1,6.35,6.35,0,0,1,5,2,7.72,7.72,0,0,1,1.76,5.33v12.1h-4.36V15.95a5,5,0,0,0-1.06-3.44,3.79,3.79,0,0,0-3-1.21,4.09,4.09,0,0,0-3.1,1.24A4.82,4.82,0,0,0,143.85,16V26.75H139.5Z"/><path class="cls-1" d="M72.83,32.55h2.55a3.44,3.44,0,0,1,1,.15,2.4,2.4,0,0,1,.81.43,1.86,1.86,0,0,1,.52.68,2.18,2.18,0,0,1,.18.91v0a2,2,0,0,1-.79,1.67,2.52,2.52,0,0,1-.85.42,3.7,3.7,0,0,1-1,.14H73.6v2.41h-.77Zm2.46,3.71a2.59,2.59,0,0,0,.77-.11,1.8,1.8,0,0,0,.59-.31,1.34,1.34,0,0,0,.38-.48,1.4,1.4,0,0,0,.13-.61v0a1.29,1.29,0,0,0-.5-1.1,2.19,2.19,0,0,0-1.33-.37H73.6v3Z"/><path class="cls-1" d="M79.35,32.55h.77v3h3.94v-3h.77v6.83h-.77V36.3H80.12v3.07h-.77Z"/><path class="cls-1" d="M89.29,32.5H90l3.11,6.87H92.3l-.8-1.8H87.78L87,39.37h-.79Zm1.9,4.38L89.65,33.4l-1.56,3.48Z"/><path class="cls-1" d="M94.48,32.55h2.94a3.27,3.27,0,0,1,1.13.18,2.2,2.2,0,0,1,.81.5,1.76,1.76,0,0,1,.39.59,2,2,0,0,1,.14.75v0a2,2,0,0,1-.14.76,1.75,1.75,0,0,1-.39.58,2.07,2.07,0,0,1-.59.41,3.13,3.13,0,0,1-.74.24l2.1,2.79h-.95l-2-2.65h-2v2.65h-.77ZM97.35,36a2.42,2.42,0,0,0,.7-.1,1.71,1.71,0,0,0,.56-.28,1.24,1.24,0,0,0,.5-1v0a1.18,1.18,0,0,0-.46-1,2.06,2.06,0,0,0-1.29-.36H95.25V36Z"/><path class="cls-1" d="M101.54,32.55h.78l2.49,3.72,2.49-3.72h.78v6.83h-.77V33.85l-2.49,3.66h0l-2.49-3.65v5.52h-.75Z"/><path class="cls-1" d="M112.54,32.5h.72l3.11,6.87h-.83l-.8-1.8H111l-.81,1.8h-.79Zm1.9,4.38-1.55-3.48-1.56,3.48Z"/></g></g></svg>