<?xml version="1.0" encoding="UTF-8" standalone="no"?>
<svg
   xmlns:dc="http://purl.org/dc/elements/1.1/"
   xmlns:cc="http://creativecommons.org/ns#"
   xmlns:rdf="http://www.w3.org/1999/02/22-rdf-syntax-ns#"
   xmlns:svg="http://www.w3.org/2000/svg"
   xmlns="http://www.w3.org/2000/svg"
   xmlns:sodipodi="http://sodipodi.sourceforge.net/DTD/sodipodi-0.dtd"
   xmlns:inkscape="http://www.inkscape.org/namespaces/inkscape"
   class="header__logo-svg"
   viewBox="0 0 160 10"
   version="1.1"
   id="svg37"
   sodipodi:docname="Avalyn-logo2.svg"
   inkscape:version="0.92.1 r15371">
  <metadata
     id="metadata41">
    <rdf:RDF>
      <cc:Work
         rdf:about="">
        <dc:format>image/svg+xml</dc:format>
        <dc:type
           rdf:resource="http://purl.org/dc/dcmitype/StillImage" />
        <dc:title />
      </cc:Work>
    </rdf:RDF>
  </metadata>
  <sodipodi:namedview
     pagecolor="#ffffff"
     bordercolor="#666666"
     borderopacity="1"
     objecttolerance="10"
     gridtolerance="10"
     guidetolerance="10"
     inkscape:pageopacity="0"
     inkscape:pageshadow="2"
     inkscape:window-width="1920"
     inkscape:window-height="1017"
     id="namedview39"
     showgrid="false"
     inkscape:zoom="7.6533333"
     inkscape:cx="59.018184"
     inkscape:cy="-18.858885"
     inkscape:window-x="-8"
     inkscape:window-y="-8"
     inkscape:window-maximized="1"
     inkscape:current-layer="Page-1" />
  <defs
     id="defs3">
    <polygon
       id="path-1"
       points="0 49.5049505 200 49.5049505 200 0 0 0" />
  </defs>
  <g
     id="Page-1"
     stroke-width="1"
     stroke="none"
     fill-rule="evenodd"
     fill="none">
    <path
       style="fill:#0b73b6;stroke-width:1.02485478"
       inkscape:connector-curvature="0"
       id="path5"
       d="M 18.337252,-2.8381892 A 20.197214,20.264108 0 0 0 9.1287965,32.926833 C 14.244605,26.510892 19.657131,13.422372 19.790142,6.1338628 21.662528,15.095649 20.076628,27.609301 15.98398,36.550556 a 20.166519,20.233312 0 0 0 3.591298,0.728851 C 26.624863,24.580977 24.865025,6.8832447 18.337252,-2.8381892 Z" />
    <path
       style="fill:#0b73b6;stroke-width:1.02485478"
       inkscape:connector-curvature="0"
       id="path7"
       d="M 38.11497,29.056737 A 20.197214,20.264108 0 0 0 21.775076,-3.1358889 h -0.37857 C 28.456322,2.1816431 36.692775,15.927155 38.11497,29.056737 Z" />
    <path
       style="fill:#36434d"
       inkscape:connector-curvature="0"
       id="path9"
       d="m 63.877944,-1.765889 h 4.1 l 11.1,25.38 h -4.68 l -2.56,-6.08 h -11.92 l -2.59,6.08 h -4.53 z m 6.34,15.33 -4.36,-10.08 -4.29,10.08 z" />
    <path
       style="fill:#36434d"
       inkscape:connector-curvature="0"
       id="path11"
       d="m 74.567944,4.604111 h 4.68 l 5.11,14 5.21,-14 h 4.57 l -7.8,19.15 h -3.93 z" />
    <path
       style="fill:#36434d"
       inkscape:connector-curvature="0"
       id="path13"
       d="m 106.61794,23.614111 v -2.34 a 8.15,8.15 0 0 1 -2.48,1.94 7.83,7.83 0 0 1 -3.67,0.79 8.79,8.79 0 0 1 -2.569996,-0.38 6.35,6.35 0 0 1 -2.16,-1.12 5.42,5.42 0 0 1 -2,-4.37 v -0.07 a 6.17,6.17 0 0 1 0.58,-2.75 5.37,5.37 0 0 1 1.6,-1.94 7,7 0 0 1 2.45,-1.15 11.94,11.94 0 0 1 3.029996,-0.36 17,17 0 0 1 2.93,0.22 17.81,17.81 0 0 1 2.32,0.58 v -0.36 a 3.78,3.78 0 0 0 -1.21,-3 5.16,5.16 0 0 0 -3.47,-1 11.61,11.61 0 0 0 -2.879996,0.32 18.87,18.87 0 0 0 -2.56,0.86 l -1.18,-3.62 a 20,20 0 0 1 3.22,-1.12 16,16 0 0 1 3.999996,-0.43 q 4.25,0 6.3,2.11 a 8.13,8.13 0 0 1 2.05,5.92 v 11.27 z m 0.11,-8 a 11.16,11.16 0 0 0 -2,-0.54 12.77,12.77 0 0 0 -2.36,-0.21 5.6,5.6 0 0 0 -3.199996,0.79 2.49,2.49 0 0 0 -1.15,2.21 v 0.07 a 2.37,2.37 0 0 0 1.06,2.09 4.54,4.54 0 0 0 2.609996,0.72 6.63,6.63 0 0 0 2,-0.29 5.15,5.15 0 0 0 1.6,-0.81 3.69,3.69 0 0 0 1.06,-1.26 3.54,3.54 0 0 0 0.38,-1.64 z" />
    <path
       style="fill:#36434d"
       inkscape:connector-curvature="0"
       id="path15"
       d="m 114.05794,-2.665889 h 4.36 v 26.28 h -4.36 z" />
    <path
       style="fill:#36434d"
       inkscape:connector-curvature="0"
       id="path17"
       d="m 125.90794,29.484111 a 8.78,8.78 0 0 1 -2.43,-0.31 10.54,10.54 0 0 1 -2.07,-0.85 l 1.48,-3.24 a 7.32,7.32 0 0 0 1.24,0.52 4.36,4.36 0 0 0 1.31,0.2 2.47,2.47 0 0 0 1.55,-0.47 4.3,4.3 0 0 0 1.15,-1.73 l -7.92,-19 h 4.64 l 5.4,14.11 4.93,-14.11 h 4.54 l -7.56,19.55 a 16.24,16.24 0 0 1 -1.19,2.48 6.51,6.51 0 0 1 -1.37,1.64 4.92,4.92 0 0 1 -1.66,0.92 6.74,6.74 0 0 1 -2.04,0.29 z" />
    <path
       style="fill:#36434d"
       inkscape:connector-curvature="0"
       id="path19"
       d="m 141.06794,4.604111 h 4.36 v 3 a 9.32,9.32 0 0 1 2.34,-2.36 6.11,6.11 0 0 1 3.6,-1 6.35,6.35 0 0 1 5,2 7.72,7.72 0 0 1 1.76,5.33 v 12.1 h -4.36 v -10.86 a 5,5 0 0 0 -1.06,-3.44 3.79,3.79 0 0 0 -3,-1.21 4.09,4.09 0 0 0 -3.1,1.24 4.82,4.82 0 0 0 -1.19,3.46 v 10.75 h -4.35 z" />
    <path
       style="fill:#0b73b6;stroke-width:1.45738733"
       inkscape:connector-curvature="0"
       id="path21"
       d="m 57.28122,26.700595 h 3.368813 a 4.5445953,5.5305924 0 0 1 1.321103,0.241159 3.1706479,3.8585528 0 0 1 1.070094,0.691325 2.4572522,2.9903785 0 0 1 0.686975,1.093256 2.8800052,3.5048521 0 0 1 0.237798,1.463035 v 0 a 2.6422066,3.2154607 0 0 1 -1.043671,2.68491 3.3291803,4.0514804 0 0 1 -1.122938,0.675247 4.8880821,5.9486023 0 0 1 -1.321104,0.225082 h -2.17982 v 3.87463 h -1.01725 z m 3.249914,5.964679 a 3.4216575,4.1640216 0 0 0 1.017249,-0.17685 2.3779859,2.8939147 0 0 0 0.779452,-0.498396 1.7702784,2.1543586 0 0 0 0.502019,-0.77171 1.8495446,2.2508224 0 0 0 0.171743,-0.980715 v 0 a 1.7042232,2.0739721 0 0 0 -0.660551,-1.768505 2.8932162,3.5209294 0 0 0 -1.757068,-0.59486 H 58.29847 v 4.823191 z" />
    <path
       style="fill:#0b73b6;stroke-width:1.45738733"
       inkscape:connector-curvature="0"
       id="path23"
       d="m 65.894813,26.700595 h 1.01725 v 4.823191 h 5.205147 v -4.823191 h 1.01725 v 10.980798 h -1.01725 v -4.951809 h -5.205147 v 4.935733 h -1.01725 z" />
    <path
       style="fill:#0b73b6;stroke-width:1.45738733"
       inkscape:connector-curvature="0"
       id="path25"
       d="m 79.026581,26.620209 h 0.937983 l 4.108631,11.045108 h -1.070094 l -1.056883,-2.893915 h -4.914504 l -1.03046,2.893915 h -1.043672 z m 2.510096,7.041858 -2.034499,-5.594901 -2.060922,5.594901 z" />
    <path
       style="fill:#0b73b6;stroke-width:1.45738733"
       inkscape:connector-curvature="0"
       id="path27"
       d="m 85.883106,26.700595 h 3.884044 a 4.3200077,5.2572782 0 0 1 1.492841,0.289392 2.9064273,3.5370068 0 0 1 1.070094,0.803865 2.3251418,2.8296054 0 0 1 0.51523,0.948561 2.6422066,3.2154607 0 0 1 0.184955,1.205798 v 0 a 2.6422066,3.2154607 0 0 1 -0.184955,1.221875 2.3119308,2.813528 0 0 1 -0.51523,0.932484 2.7346838,3.3280018 0 0 1 -0.77945,0.659168 4.1350533,5.032196 0 0 1 -0.977612,0.385856 l 2.774312,4.485568 h -1.255049 l -2.642201,-4.260485 h -2.642207 v 4.260485 h -1.017249 z m 3.791567,5.54667 a 3.1970699,3.8907074 0 0 0 0.924772,-0.160773 2.2590867,2.7492189 0 0 0 0.739812,-0.450164 1.6381681,1.9935856 0 0 0 0.660552,-1.607731 v 0 a 1.5589019,1.8971218 0 0 0 -0.607708,-1.60773 2.7214727,3.3119245 0 0 0 -1.704218,-0.578783 h -2.787528 v 4.405181 z" />
    <path
       style="fill:#0b73b6;stroke-width:1.45738733"
       inkscape:connector-curvature="0"
       id="path29"
       d="m 95.21009,26.700595 h 1.030461 l 3.289547,5.980757 3.289542,-5.980757 h 1.03047 v 10.980798 h -1.01725 v -8.890748 l -3.289551,5.884293 v 0 l -3.289547,-5.868215 v 8.87467 h -0.990828 z" />
    <path
       style="fill:#0b73b6;stroke-width:1.45738733"
       inkscape:connector-curvature="0"
       id="path31"
       d="m 109.74222,26.620209 h 0.9512 l 4.10864,11.045108 h -1.09653 l -1.05688,-2.893915 h -4.94092 l -1.0701,2.893915 h -1.04367 z m 2.5101,7.041858 -2.04771,-5.594901 -2.06092,5.594901 z" />
  </g>
</svg>
