<svg xmlns="http://www.w3.org/2000/svg" viewBox="0 0 152.71 39.37"><defs><style>.cls-1{fill:#0b73b6;}.cls-2{fill:#36434d;}</style></defs><title>logo-2</title><g id="Layer_2" data-name="Layer 2"><g id="Layer_1-2" data-name="Layer 1"><path class="cls-1" d="M16.39.29a19.74,19.74,0,0,0-9,34.84c5-6.25,10.29-19,10.42-26.1,1.83,8.73.28,20.92-3.72,29.63a19.71,19.71,0,0,0,3.51.71C24.49,27,22.77,9.76,16.39.29Z"/><path class="cls-1" d="M35.72,31.36A19.74,19.74,0,0,0,19.75,0h-.37C26.28,5.18,34.33,18.57,35.72,31.36Z"/><path class="cls-2" d="M58.46,1.37h4.1L73.65,26.75H69l-2.56-6.08H54.5l-2.59,6.08H47.37ZM64.8,16.7,60.44,6.62,56.12,16.7Z"/><path class="cls-2" d="M69.18,7.74h4.68l5.11,14,5.15-14h4.57L80.91,26.89H77Z"/><path class="cls-2" d="M101.2,26.75V24.41a8.15,8.15,0,0,1-2.48,1.94,7.83,7.83,0,0,1-3.67.79,8.79,8.79,0,0,1-2.57-.38,6.35,6.35,0,0,1-2.16-1.12,5.42,5.42,0,0,1-2-4.37V21.2a6.17,6.17,0,0,1,.58-2.75,5.37,5.37,0,0,1,1.6-1.94,7,7,0,0,1,2.45-1.15A11.94,11.94,0,0,1,96,15a17,17,0,0,1,2.93.22,17.81,17.81,0,0,1,2.32.58v-.36a3.78,3.78,0,0,0-1.21-3,5.16,5.16,0,0,0-3.47-1,11.61,11.61,0,0,0-2.88.32,18.87,18.87,0,0,0-2.56.86L89.93,9a20,20,0,0,1,3.24-1.15,16,16,0,0,1,4-.43q4.25,0,6.3,2.11a8.13,8.13,0,0,1,2.05,5.92V26.75Zm.11-8a11.16,11.16,0,0,0-2-.54A12.77,12.77,0,0,0,97,18a5.6,5.6,0,0,0-3.2.79A2.49,2.49,0,0,0,92.59,21v.07a2.37,2.37,0,0,0,1.06,2.09,4.54,4.54,0,0,0,2.61.72,6.63,6.63,0,0,0,2-.29,5.15,5.15,0,0,0,1.6-.81,3.69,3.69,0,0,0,1.06-1.26,3.54,3.54,0,0,0,.38-1.64Z"/><path class="cls-2" d="M108.64.47H113V26.75h-4.36Z"/><path class="cls-2" d="M120.49,32.62a8.78,8.78,0,0,1-2.43-.31,10.54,10.54,0,0,1-2.07-.85l1.48-3.24a7.32,7.32,0,0,0,1.24.52,4.36,4.36,0,0,0,1.31.2,2.47,2.47,0,0,0,1.55-.47,4.3,4.3,0,0,0,1.15-1.73l-7.92-19h4.64l5.4,14.11,4.93-14.11h4.54l-7.56,19.55a16.24,16.24,0,0,1-1.19,2.48,6.51,6.51,0,0,1-1.37,1.64,4.92,4.92,0,0,1-1.66.92A6.74,6.74,0,0,1,120.49,32.62Z"/><path class="cls-2" d="M135.64,7.74H140v3a9.32,9.32,0,0,1,2.34-2.36,6.11,6.11,0,0,1,3.6-1,6.35,6.35,0,0,1,5,2,7.72,7.72,0,0,1,1.76,5.33v12.1h-4.36V15.95a5,5,0,0,0-1.06-3.44,3.79,3.79,0,0,0-3-1.21,4.09,4.09,0,0,0-3.1,1.24A4.82,4.82,0,0,0,140,16V26.75h-4.36Z"/><path class="cls-1" d="M47.37,32.18h2.69a3.63,3.63,0,0,1,1.11.16,2.53,2.53,0,0,1,.85.45,2,2,0,0,1,.54.71,2.3,2.3,0,0,1,.19,1v0a2.12,2.12,0,0,1-.84,1.76,2.66,2.66,0,0,1-.9.45,3.9,3.9,0,0,1-1.09.15H48.19v2.54h-.81ZM50,36.09a2.73,2.73,0,0,0,.81-.11,1.9,1.9,0,0,0,.62-.32,1.42,1.42,0,0,0,.4-.5,1.47,1.47,0,0,0,.14-.64v0a1.36,1.36,0,0,0-.53-1.16A2.31,2.31,0,0,0,50,32.93H48.19v3.15Z"/><path class="cls-1" d="M58.35,32.18h.81v3.21h4.15V32.18h.81v7.19h-.81V36.14H59.16v3.24h-.81Z"/><path class="cls-1" d="M72.94,32.13h.76L77,39.37H76.1l-.84-1.9H71.35l-.85,1.9h-.83Zm2,4.61-1.63-3.67-1.64,3.67Z"/><path class="cls-1" d="M82.51,32.18H85.6a3.44,3.44,0,0,1,1.19.19,2.31,2.31,0,0,1,.86.53,1.86,1.86,0,0,1,.41.63,2.12,2.12,0,0,1,.14.79v0a2.1,2.1,0,0,1-.14.8,1.85,1.85,0,0,1-.41.62,2.18,2.18,0,0,1-.62.43,3.3,3.3,0,0,1-.78.25l2.21,2.94h-1l-2.09-2.8H83.32v2.8h-.81Zm3,3.67a2.55,2.55,0,0,0,.74-.1,1.8,1.8,0,0,0,.59-.29,1.31,1.31,0,0,0,.53-1.08v0a1.24,1.24,0,0,0-.48-1,2.17,2.17,0,0,0-1.36-.38H83.32v2.92Z"/><path class="cls-1" d="M94.05,32.18h.82l2.62,3.93,2.62-3.93h.82v7.19h-.81V33.55L97.51,37.4h0l-2.62-3.84v5.82h-.79Z"/><path class="cls-1" d="M109.75,32.13h.76l3.28,7.24h-.87l-.84-1.9h-3.92l-.85,1.9h-.83Zm2,4.61-1.63-3.67-1.64,3.67Z"/></g></g></svg>